# xmcd
# Copyright (C) 1995-1998 Ti Kan
#
# Track frame offsets:
#       150
#       681
#       1234
#
# Disc length: 23 seconds
#
# Revision: 0
# Processed by: cddbd v1.5.2PL0 Copyright (c) Steve Scherf et al.
# Submitted via: CD-Transfer v1.0
#
DISCID=12001503
DTITLE=Spitalradio Luz - Weihnachtsjingles
DYEAR=06
DGENRE=
TTITLE0=Weihnachtsjingle "frohe Festtage" 1
TTITLE1=Weihnachtsjingle "frohe Festtage" 2
TTITLE2=Weihnachtsjingle "frohe Festtage" 3
EXTD=
EXTT0=
EXTT1=
EXTT2=
PLAYORDER=
